# xmcd
#
# Track frame offsets: 
#        150
#        11470
#        28613
#        42258
#        56339
#        70344
#        81443
#        94923
#        109404
#        122975
#        134733
#        151177
#        166661
#        180627
#        193158
#        206571
#
# Disc length: 2888 seconds
#
# Revision: 0
# Processed by: cddbd v1.5.2PL0 Copyright (c) Steve Scherf et al.
# Submitted via: ExactAudioCopyFreeDBPlugin 1.0
#
DISCID=df0b4610
DTITLE=Blues - CD1
DYEAR=2015
DGENRE=Blues
TTITLE0=John Lee Hooker - Boom Boom
TTITLE1=Ray Charles - Fever
TTITLE2=Muddy Waters - Baby, I Done Got Wise
TTITLE3=B.B. King - Sweet Thing
TTITLE4=Albert King - Travelin To California
TTITLE5=Amos Milburn - I'm Still A Fool For You 
TTITLE6=Eddie Taylor - Bigtown Playboy
TTITLE7=Elmore James - Dust My blues
TTITLE8=Josh White - Hard Time Blues
TTITLE9=Lightnin’ Hopkins - Tell Me, Baby
TTITLE10=Ray Charles - Georgia On My Mind
TTITLE11=Peggy Lee - A Woman Alone With The Blues
TTITLE12=Lonnie Johnson - Nolove For Sale 
TTITLE13=Little Walter - My Babe
TTITLE14=Jimmy Witherspoon - Third Floor Blues
TTITLE15=Henry Mancini and His Orchestra - Theme From Peter Gunn
EXTD=
EXTT0=
EXTT1=
EXTT2=
EXTT3=
EXTT4=
EXTT5=
EXTT6=
EXTT7=
EXTT8=
EXTT9=
EXTT10=
EXTT11=
EXTT12=
EXTT13=
EXTT14=
EXTT15=
PLAYORDER=
